<svg width="24" height="24" viewBox="0 0 24 24" fill="none" xmlns="http://www.w3.org/2000/svg">
<g clipPath="url(#clip0_4347_9162)">
<path fillRule="evenodd" clipRule="evenodd" d="M15.5303 8.46967C15.8232 8.76256 15.8232 9.23744 15.5303 9.53033L9.53033 15.5303C9.23744 15.8232 8.76256 15.8232 8.46967 15.5303C8.17678 15.2374 8.17678 14.7626 8.46967 14.4697L14.4697 8.46967C14.7626 8.17678 15.2374 8.17678 15.5303 8.46967Z" fill="#161C24"/>
<path d="M9.5 10C9.77614 10 10 9.77614 10 9.5C10 9.22386 9.77614 9 9.5 9C9.22386 9 9 9.22386 9 9.5C9 9.77614 9.22386 10 9.5 10Z" fill="#161C24"/>
<path fillRule="evenodd" clipRule="evenodd" d="M9.5 9.75C9.63807 9.75 9.75 9.63807 9.75 9.5C9.75 9.36193 9.63807 9.25 9.5 9.25C9.36193 9.25 9.25 9.36193 9.25 9.5C9.25 9.63807 9.36193 9.75 9.5 9.75ZM8.25 9.5C8.25 8.80964 8.80964 8.25 9.5 8.25C10.1904 8.25 10.75 8.80964 10.75 9.5C10.75 10.1904 10.1904 10.75 9.5 10.75C8.80964 10.75 8.25 10.1904 8.25 9.5Z" fill="#161C24"/>
<path d="M14.5 15C14.7761 15 15 14.7761 15 14.5C15 14.2239 14.7761 14 14.5 14C14.2239 14 14 14.2239 14 14.5C14 14.7761 14.2239 15 14.5 15Z" fill="#161C24"/>
<path fillRule="evenodd" clipRule="evenodd" d="M14.5 14.75C14.6381 14.75 14.75 14.6381 14.75 14.5C14.75 14.3619 14.6381 14.25 14.5 14.25C14.3619 14.25 14.25 14.3619 14.25 14.5C14.25 14.6381 14.3619 14.75 14.5 14.75ZM13.25 14.5C13.25 13.8096 13.8096 13.25 14.5 13.25C15.1904 13.25 15.75 13.8096 15.75 14.5C15.75 15.1904 15.1904 15.75 14.5 15.75C13.8096 15.75 13.25 15.1904 13.25 14.5Z" fill="#161C24"/>
<path fillRule="evenodd" clipRule="evenodd" d="M12.01 3.76172C11.8189 3.76172 11.6297 3.79949 11.4532 3.87287C11.2767 3.94625 11.1165 4.05379 10.9818 4.1893L10.9803 4.19079L10.2803 4.89079L10.2788 4.89228C9.72648 5.44152 8.97933 5.75002 8.2004 5.75046L7.19997 5.75046C6.81541 5.75046 6.4466 5.90323 6.17467 6.17516C5.90274 6.44708 5.74997 6.8159 5.74997 7.20046V8.20046C5.74953 8.97939 5.44103 9.72696 4.89179 10.2793L4.8903 10.2808L4.1903 10.9808L4.18881 10.9823C4.0533 11.117 3.94577 11.2772 3.87239 11.4537C3.79901 11.6301 3.76123 11.8194 3.76123 12.0105C3.76123 12.2016 3.79901 12.3908 3.87239 12.5672C3.94577 12.7437 4.0533 12.9039 4.18881 13.0386L4.19031 13.0401L4.89179 13.7416C5.44103 14.294 5.74953 15.0411 5.74997 15.82L5.74997 16.8205C5.74997 17.205 5.90274 17.5738 6.17467 17.8458C6.4466 18.1177 6.81541 18.2705 7.19997 18.2705H8.19997C8.9789 18.2709 9.72648 18.5794 10.2788 19.1286L10.2803 19.1301L10.9818 19.8316C11.1165 19.9671 11.2767 20.0747 11.4532 20.148C11.6297 20.2214 11.8189 20.2592 12.01 20.2592C12.2011 20.2592 12.3903 20.2214 12.5667 20.148C12.7432 20.0747 12.9034 19.9671 13.0382 19.8316L13.0396 19.8301L13.7396 19.1301L13.7411 19.1286C14.2935 18.5794 15.0406 18.2709 15.8195 18.2705H16.82C17.2045 18.2705 17.5734 18.1177 17.8453 17.8458C18.1172 17.5738 18.27 17.205 18.27 16.8205V15.8205C18.2704 15.0415 18.5789 14.294 19.1282 13.7416L19.1296 13.7401L19.8296 13.0401L19.8311 13.0386C19.9666 12.9039 20.0742 12.7437 20.1476 12.5672C20.2209 12.3908 20.2587 12.2016 20.2587 12.0105C20.2587 11.8194 20.2209 11.6301 20.1476 11.4537C20.0742 11.2772 19.9666 11.117 19.8311 10.9823L19.8296 10.9808L19.1296 10.2808L19.1282 10.2793C18.5789 9.72696 18.2704 8.97982 18.27 8.20089V7.20046C18.27 6.8159 18.1172 6.44708 17.8453 6.17516C17.5734 5.90323 17.2045 5.75046 16.82 5.75046H15.82C15.041 5.75002 14.2935 5.44152 13.7411 4.89228L13.7396 4.89079L13.0396 4.19079L13.0382 4.1893C12.9034 4.05379 12.7432 3.94625 12.5667 3.87287C12.3903 3.79949 12.2011 3.76172 12.01 3.76172ZM4.24997 7.20046C4.24997 6.41807 4.56078 5.66773 5.11401 5.1145C5.66724 4.56126 6.41758 4.25046 7.19997 4.25046L8.19954 4.25046C8.19948 4.25046 8.19961 4.25046 8.19954 4.25046C8.58201 4.25019 8.94906 4.09883 9.22043 3.82934C9.2202 3.82957 9.22067 3.82911 9.22043 3.82934L9.91815 3.13162C9.91841 3.13137 9.91866 3.13112 9.91891 3.13086C10.1929 2.85553 10.5186 2.63702 10.8772 2.48786C11.2362 2.33857 11.6212 2.26172 12.01 2.26172C12.3988 2.26172 12.7837 2.33857 13.1427 2.48786C13.5014 2.63702 13.8271 2.85554 14.1011 3.13089C14.1013 3.13113 14.1015 3.13138 14.1018 3.13162L14.7988 3.82864C14.7986 3.82844 14.799 3.82885 14.7988 3.82864C15.0702 4.09818 15.4377 4.25019 15.8202 4.25046C15.8202 4.25046 15.8203 4.25046 15.8202 4.25046H16.82C17.6024 4.25046 18.3527 4.56126 18.9059 5.1145C19.4592 5.66773 19.77 6.41807 19.77 7.20046V8.20003C19.7702 8.58251 19.9215 8.9494 20.191 9.2208C20.1912 9.22108 20.1915 9.22135 20.1918 9.22162L20.8888 9.91864C20.8892 9.91902 20.8896 9.91939 20.8899 9.91976C21.1651 10.1937 21.3835 10.5192 21.5326 10.8777C21.6819 11.2367 21.7587 11.6217 21.7587 12.0105C21.7587 12.3993 21.6819 12.7842 21.5326 13.1432C21.3834 13.5018 21.165 13.8274 20.8897 14.1014C20.8894 14.1017 20.8891 14.102 20.8888 14.1023L20.1918 14.7993C20.1916 14.7995 20.192 14.7991 20.1918 14.7993C19.9222 15.0707 19.7702 15.4383 19.77 15.8209V16.8205C19.77 17.6028 19.4592 18.3532 18.9059 18.9064C18.3527 19.4597 17.6024 19.7705 16.82 19.7705H15.8204C15.4378 19.7707 15.0709 19.9221 14.7994 20.1917C14.7992 20.1919 14.7996 20.1915 14.7994 20.1917L14.1018 20.8893C14.1015 20.8896 14.1012 20.8899 14.1009 20.8902C13.8269 21.1655 13.5013 21.3839 13.1427 21.5331C12.7837 21.6823 12.3988 21.7592 12.01 21.7592C11.6212 21.7592 11.2362 21.6823 10.8772 21.5331C10.5187 21.384 10.1932 21.1656 9.91928 20.8904C9.9189 20.8901 9.91853 20.8897 9.91815 20.8893L9.22114 20.1923C9.22086 20.192 9.22059 20.1917 9.22031 20.1915C8.94891 19.922 8.58202 19.7707 8.19954 19.7705H7.19997C6.41758 19.7705 5.66724 19.4597 5.11401 18.9064C4.56078 18.3532 4.24997 17.6028 4.24997 16.8205L4.24997 15.8209C4.24997 15.8208 4.24997 15.821 4.24997 15.8209C4.2497 15.4384 4.0983 15.0713 3.82877 14.7999C3.82856 14.7997 3.82897 14.8001 3.82877 14.7999L3.13114 14.1023C3.13089 14.102 3.13064 14.1018 3.1304 14.1015C2.85505 13.8276 2.63653 13.5019 2.48737 13.1432C2.33808 12.7842 2.26123 12.3993 2.26123 12.0105C2.26123 11.6217 2.33808 11.2367 2.48737 10.8777C2.63653 10.5191 2.85504 10.1934 3.13038 9.9194C3.13063 9.91915 3.13088 9.91889 3.13114 9.91864L3.82815 9.22162C3.82792 9.22186 3.82839 9.22139 3.82815 9.22162C4.09764 8.95025 4.2497 8.58269 4.24997 8.20022C4.24997 8.20016 4.24997 8.20028 4.24997 8.20022V7.20046Z" fill="#161C24"/>
</g>
<defs>
<clipPath id="clip0_4347_9162">
<rect width="24" height="24" fill="white"/>
</clipPath>
</defs>
</svg>
