<svg width="24" height="24" viewBox="0 0 24 24" fill="none" xmlns="http://www.w3.org/2000/svg">
<g clipPath="url(#clip0_4347_9151)">
<path fillRule="evenodd" clipRule="evenodd" d="M7 15.75C6.30964 15.75 5.75 16.3096 5.75 17C5.75 17.6904 6.30964 18.25 7 18.25C7.69036 18.25 8.25 17.6904 8.25 17C8.25 16.3096 7.69036 15.75 7 15.75ZM4.25 17C4.25 15.4812 5.48122 14.25 7 14.25C8.51878 14.25 9.75 15.4812 9.75 17C9.75 18.5188 8.51878 19.75 7 19.75C5.48122 19.75 4.25 18.5188 4.25 17Z" fill="#161C24"/>
<path fillRule="evenodd" clipRule="evenodd" d="M17 15.75C16.3096 15.75 15.75 16.3096 15.75 17C15.75 17.6904 16.3096 18.25 17 18.25C17.6904 18.25 18.25 17.6904 18.25 17C18.25 16.3096 17.6904 15.75 17 15.75ZM14.25 17C14.25 15.4812 15.4812 14.25 17 14.25C18.5188 14.25 19.75 15.4812 19.75 17C19.75 18.5188 18.5188 19.75 17 19.75C15.4812 19.75 14.25 18.5188 14.25 17Z" fill="#161C24"/>
<path fillRule="evenodd" clipRule="evenodd" d="M4 5.75C3.9337 5.75 3.87011 5.77634 3.82322 5.82322C3.77634 5.87011 3.75 5.9337 3.75 6V16.25H5C5.41421 16.25 5.75 16.5858 5.75 17C5.75 17.4142 5.41421 17.75 5 17.75H3C2.58579 17.75 2.25 17.4142 2.25 17V6C2.25 5.53587 2.43437 5.09075 2.76256 4.76256C3.09075 4.43437 3.53587 4.25 4 4.25H13C13.4142 4.25 13.75 4.58579 13.75 5V5.25H18C18.2634 5.25 18.5076 5.38822 18.6431 5.61413L21.6368 10.6036C21.6743 10.6637 21.7035 10.7295 21.7229 10.7994C21.7424 10.8696 21.7512 10.9413 21.75 11.0123V17C21.75 17.4142 21.4142 17.75 21 17.75H19C18.5858 17.75 18.25 17.4142 18.25 17C18.25 16.5858 18.5858 16.25 19 16.25H20.25V11.75H13.75V16.25H15C15.4142 16.25 15.75 16.5858 15.75 17C15.75 17.4142 15.4142 17.75 15 17.75H9C8.58579 17.75 8.25 17.4142 8.25 17C8.25 16.5858 8.58579 16.25 9 16.25H12.25V5.75H4ZM13.75 6.75V10.25H19.6754L17.5754 6.75H13.75Z" fill="#161C24"/>
</g>
<defs>
<clipPath id="clip0_4347_9151">
<rect width="24" height="24" fill="white"/>
</clipPath>
</defs>
</svg>
