<svg width="24" height="24" viewBox="0 0 24 24" fill="none" xmlns="http://www.w3.org/2000/svg">
<g clipPath="url(#clip0_4347_9157)">
<path fillRule="evenodd" clipRule="evenodd" d="M9 3.75C7.20507 3.75 5.75 5.20507 5.75 7C5.75 8.79493 7.20507 10.25 9 10.25C10.7949 10.25 12.25 8.79493 12.25 7C12.25 5.20507 10.7949 3.75 9 3.75ZM4.25 7C4.25 4.37665 6.37665 2.25 9 2.25C11.6234 2.25 13.75 4.37665 13.75 7C13.75 9.62335 11.6234 11.75 9 11.75C6.37665 11.75 4.25 9.62335 4.25 7Z" fill="#161C24"/>
<path fillRule="evenodd" clipRule="evenodd" d="M7 15.75C6.13805 15.75 5.3114 16.0924 4.7019 16.7019C4.09241 17.3114 3.75 18.138 3.75 19V21C3.75 21.4142 3.41421 21.75 3 21.75C2.58579 21.75 2.25 21.4142 2.25 21V19C2.25 17.7402 2.75044 16.532 3.64124 15.6412C4.53204 14.7504 5.74022 14.25 7 14.25H11C12.2598 14.25 13.468 14.7504 14.3588 15.6412C15.2496 16.532 15.75 17.7402 15.75 19V21C15.75 21.4142 15.4142 21.75 15 21.75C14.5858 21.75 14.25 21.4142 14.25 21V19C14.25 18.138 13.9076 17.3114 13.2981 16.7019C12.6886 16.0924 11.862 15.75 11 15.75H7Z" fill="#161C24"/>
<path fillRule="evenodd" clipRule="evenodd" d="M15.2736 2.94403C15.3764 2.54276 15.7849 2.30076 16.1862 2.4035C17.208 2.66511 18.1136 3.25933 18.7603 4.09249C19.407 4.92566 19.758 5.95036 19.758 7.00506C19.758 8.05977 19.407 9.08447 18.7603 9.91763C18.1136 10.7508 17.208 11.345 16.1862 11.6066C15.7849 11.7094 15.3764 11.4674 15.2736 11.0661C15.1709 10.6648 15.4129 10.2562 15.8142 10.1535C16.5132 9.97451 17.1329 9.56793 17.5754 8.99787C18.0178 8.42782 18.258 7.7267 18.258 7.00506C18.258 6.28343 18.0178 5.58231 17.5754 5.01225C17.1329 4.4422 16.5132 4.03562 15.8142 3.85663C15.4129 3.75388 15.1709 3.3453 15.2736 2.94403Z" fill="#161C24"/>
<path fillRule="evenodd" clipRule="evenodd" d="M17.274 14.9621C17.3775 14.561 17.7866 14.3199 18.1877 14.4234C19.2028 14.6855 20.1027 15.276 20.747 16.103C21.3914 16.93 21.7441 17.9469 21.7502 18.9953L21.7502 18.9996H21.7502V20.9996C21.7502 21.4138 21.4144 21.7496 21.0002 21.7496C20.586 21.7496 20.2502 21.4138 20.2502 20.9996V19.0019C20.2456 18.2853 20.0043 17.5903 19.5638 17.025C19.1229 16.4592 18.5072 16.0551 17.8127 15.8758C17.4116 15.7722 17.1704 15.3632 17.274 14.9621Z" fill="#161C24"/>
</g>
<defs>
<clipPath id="clip0_4347_9157">
<rect width="24" height="24" fill="white"/>
</clipPath>
</defs>
</svg>
