<svg width="24" height="24" viewBox="0 0 24 24" fill="none" xmlns="http://www.w3.org/2000/svg">
<g clipPath="url(#clip0_4347_9146)">
<path fillRule="evenodd" clipRule="evenodd" d="M4.05546 4.05546C4.57118 3.53973 5.27065 3.25 6 3.25H16C16.4641 3.25 16.9092 3.43437 17.2374 3.76256C17.5656 4.09075 17.75 4.53587 17.75 5V7.25H18C18.4641 7.25 18.9092 7.43437 19.2374 7.76256C19.5656 8.09075 19.75 8.53587 19.75 9V12C19.75 12.4142 19.4142 12.75 19 12.75C18.5858 12.75 18.25 12.4142 18.25 12V9C18.25 8.93369 18.2237 8.87011 18.1768 8.82322C18.1299 8.77634 18.0663 8.75 18 8.75H6C5.56137 8.75 5.13355 8.64521 4.75 8.44949V18C4.75 18.3315 4.8817 18.6495 5.11612 18.8839C5.35054 19.1183 5.66848 19.25 6 19.25H18C18.0663 19.25 18.1299 19.2237 18.1768 19.1768C18.2237 19.1299 18.25 19.0663 18.25 19V16C18.25 15.5858 18.5858 15.25 19 15.25C19.4142 15.25 19.75 15.5858 19.75 16V19C19.75 19.4641 19.5656 19.9092 19.2374 20.2374C18.9092 20.5656 18.4641 20.75 18 20.75H6C5.27065 20.75 4.57118 20.4603 4.05546 19.9445C3.53973 19.4288 3.25 18.7293 3.25 18V6C3.25 5.27065 3.53973 4.57118 4.05546 4.05546ZM4.75 6C4.75 6.33152 4.8817 6.64946 5.11612 6.88388C5.35054 7.1183 5.66848 7.25 6 7.25H16.25V5C16.25 4.93369 16.2237 4.87011 16.1768 4.82322C16.1299 4.77634 16.0663 4.75 16 4.75H6C5.66848 4.75 5.35054 4.8817 5.11612 5.11612C4.8817 5.35054 4.75 5.66848 4.75 6Z" fill="#161C24"/>
<path fillRule="evenodd" clipRule="evenodd" d="M16 12.75C15.6685 12.75 15.3505 12.8817 15.1161 13.1161C14.8817 13.3505 14.75 13.6685 14.75 14C14.75 14.3315 14.8817 14.6495 15.1161 14.8839C15.3505 15.1183 15.6685 15.25 16 15.25H19.25V12.75H16ZM14.0555 12.0555C14.5712 11.5397 15.2707 11.25 16 11.25H20C20.4142 11.25 20.75 11.5858 20.75 12V16C20.75 16.4142 20.4142 16.75 20 16.75H16C15.2707 16.75 14.5712 16.4603 14.0555 15.9445C13.5397 15.4288 13.25 14.7293 13.25 14C13.25 13.2707 13.5397 12.5712 14.0555 12.0555Z" fill="#161C24"/>
</g>
<defs>
<clipPath id="clip0_4347_9146">
<rect width="24" height="24" fill="white"/>
</clipPath>
</defs>
</svg>
