<svg width="20" height="20" viewBox="0 0 20 20" fill="none" xmlns="http://www.w3.org/2000/svg">
<g clipPath="url(#clip0_4347_9419)">
<g clipPath="url(#clip1_4347_9419)">
<path d="M18.3993 13.122C17.1748 13.1224 15.9724 12.9313 14.833 12.5551C14.2747 12.3648 13.5884 12.5398 13.2478 12.8898L10.9995 14.5881C8.39112 13.1968 6.78416 11.5913 5.41024 9.00338L7.05721 6.81266C7.48515 6.38503 7.6385 5.7605 7.45436 5.17462C7.07588 4.02942 6.88343 2.82776 6.88305 1.60276C6.88283 0.717816 6.16266 -0.00190866 5.27776 -0.0016346L1.60484 -0.000497043C0.719948 -0.000222978 0.000222975 0.719948 0.000497036 1.60484C0.00363849 11.7481 8.25817 19.9974 18.4014 19.9943C19.2863 19.994 20.006 19.2739 20.0057 18.389L20.0046 14.7263C20.0043 13.8415 19.2841 13.1217 18.3993 13.122Z" fill="#C48C46"/>
</g>
</g>
<defs>
<clipPath id="clip0_4347_9419">
<rect width="20" height="20" fill="white"/>
</clipPath>
<clipPath id="clip1_4347_9419">
<rect width="20" height="20" fill="white" transform="rotate(-0.0177453)"/>
</clipPath>
</defs>
</svg>
