<svg width="20" height="20" viewBox="0 0 20 20" fill="none" xmlns="http://www.w3.org/2000/svg">
<path d="M19.8239 4.31055L13.7583 10.175L19.8239 16.0394C19.9335 15.8163 20.0001 15.5698 20.0001 15.3065V5.04337C20.0001 4.78007 19.9335 4.53356 19.8239 4.31055Z" fill="#C48C46"/>
<path d="M18.2423 3.33301H1.75797C1.48738 3.33301 1.23406 3.39774 1.00488 3.50444L8.75735 11.0103C9.44281 11.6774 10.5575 11.6774 11.243 11.0103L18.9954 3.50444C18.7663 3.39774 18.5129 3.33301 18.2423 3.33301Z" fill="#C48C46"/>
<path d="M0.176172 4.31055C0.0665235 4.53356 0 4.78007 0 5.04337V15.3065C0 15.5698 0.0665235 15.8164 0.176172 16.0394L6.24176 10.175L0.176172 4.31055Z" fill="#C48C46"/>
<path d="M12.9298 10.9814L12.0715 11.8167C10.9294 12.9281 9.0709 12.9281 7.92875 11.8167L7.07047 10.9814L1.00488 16.8459C1.23406 16.9526 1.48738 17.0173 1.75797 17.0173H18.2423C18.5129 17.0173 18.7663 16.9526 18.9954 16.8459L12.9298 10.9814Z" fill="#C48C46"/>
</svg>
